<?xml version="1.0" encoding="utf-8"?>
<!-- Generator: Adobe Illustrator 19.0.1, SVG Export Plug-In . SVG Version: 6.00 Build 0)  -->
<svg version="1.1" id="Слой_1" xmlns="http://www.w3.org/2000/svg" xmlns:xlink="http://www.w3.org/1999/xlink" x="0px" y="0px"
	 viewBox="0 0 291.6 54" enable-background="new 0 0 291.6 54" xml:space="preserve">
<path fill="#FFFFFF" d="M220.9,8.2c-4.6,0-8.3,3.7-8.3,8.3c0,4.6,3.7,8.3,8.3,8.3c4.6,0,8.3-3.7,8.3-8.3
	C229.2,11.9,225.5,8.2,220.9,8.2 M248.7,8.2c-4.6,0-8.3,3.7-8.3,8.3c0,4.6,3.7,8.3,8.3,8.3c4.6,0,8.3-3.7,8.3-8.3
	C256.9,11.9,253.2,8.2,248.7,8.2z M248.7,0c9.1,0,16.5,7.4,16.5,16.5c0,9.1-7.4,16.5-16.5,16.5c-5.8,0-10.9-3-13.9-7.6
	c-2.9,4.6-8,7.6-13.9,7.6c-9.1,0-16.5-7.4-16.5-16.5c0-9.1,7.4-16.5,16.5-16.5c5.8,0,10.9,3,13.9,7.6C237.7,3,242.8,0,248.7,0z"/>
<path fill="#FFFFFF" d="M267.3,0v26.1c0,3.7,3.1,6.8,6.8,6.8h17v-7.8H276V0H267.3z"/>
<polygon fill="#FFFFFF" points="193.8,0 193.8,12.6 181.5,12.6 181.5,9.9 172.8,9.9 172.8,32.9 181.5,32.9 181.5,20.4 193.8,20.4 
	193.8,32.9 202.5,32.9 202.5,0 "/>
<path fill="#FFFFFF" d="M117.3,9.3c0,11.3,16.4,9.7,16.4,14.3c0,1.6-1.4,2.1-4.7,2.1c-3.6,0-12.5,0-16.7,0v7.2c3.6,0,12.8,0,17.4,0
	c6.9,0,12.6-2.2,12.6-9.6c0-11.2-16.4-9.9-16.4-14c0-1.2,0.9-2,4-2c1.7,0,7.9,0,14.1,0c1.7-3,4.3-5.5,7.4-7.2l-22.2,0
	C122.7,0,117.3,3,117.3,9.3"/>
<path fill="#FFFFFF" d="M88.3,0l-10,15.4L68.2,0h-1.4C63,0,60,3.1,60,6.8v26.1h8.7V15.4l9.6,14.7l2.5-3.8l7.1-10.8v17.5h8.7V6.8
	c0-3.7-3.1-6.8-6.8-6.8H88.3z"/>
<path fill="#FFFFFF" d="M160.2,8.2c-4.6,0-8.3,3.7-8.3,8.3c0,4.6,3.7,8.3,8.3,8.3h10.7v8.2h-10.7c-9.1,0-16.5-7.4-16.5-16.5
	c0-9.1,7.4-16.5,16.5-16.5h31.7v8.2H160.2z"/>
<path fill="#FFFFFF" d="M9.3,0L9.3,0L7.5,0C3.9,0.1,1,3,1,6.6v19.8c0,3.6,3,6.6,6.6,6.6l17.4,0v-7.3H9.8v-6.4h14v-6.1h-14V7.5h28.5
	v0h2.3c5.2,0,8.3,2.8,8.3,8.9c0,6.2-3.1,8.9-8.3,8.9h-4.4V9.9h-8.7v23.1h13.1c11.8,0,17.2-6.9,17.2-16.5C57.8,6.9,52.3,0,40.6,0H9.3
	z"/>
<g>
	<path fill="#FFFFFF" d="M6.2,38c2.5,0,4,0.9,4,2.9c0,1.2-0.6,2.1-1.7,2.5c1.2,0.4,2.1,1.2,2.1,2.8c0,2.6-2.5,3.2-4.6,3.2H1.1V38
		H6.2z M6.1,44.6H4v2.4h2c0.9,0,1.5-0.3,1.5-1.2S7,44.6,6.1,44.6z M5.9,40.3H4.1v2.1l1.8,0c0.8,0,1.2-0.4,1.2-1.1S6.7,40.3,5.9,40.3
		z"/>
</g>
<g>
	<path fill="#FFFFFF" d="M26.8,49.3v-3.9L22.3,38h3.4l2.5,4.7l2.5-4.7h3.4l-4.4,7.5v3.9H26.8z"/>
</g>
<g>
</g>
<g>
	<path fill="#FFFFFF" d="M66.4,38c4,0,5.9,2.4,5.9,5.7s-1.9,5.7-5.9,5.7h-4.5V38H66.4z M66.4,40.5h-1.5v6.2h1.5c1.8,0,2.8-1,2.8-3.1
		C69.2,41.5,68.2,40.5,66.4,40.5z"/>
</g>
<g>
	<path fill="#FFFFFF" d="M92,38v7.8c0,2.8-2,3.8-4.2,3.8c-1.1,0-2.2-0.3-2.9-0.5v-2.8c0.6,0.3,1.4,0.5,2.2,0.5c1.1,0,2-0.3,2-1.4
		v-4.7h-2.8V38H92z"/>
</g>
<g>
</g>
<g>
	<path fill="#FFFFFF" d="M130.4,51.6v-2.3h-9.1V38h3v8.7h4.2V38h3v8.7h1.5v5H130.4z"/>
</g>
<g>
	<path fill="#FFFFFF" d="M151.6,38c2.5,0,4,0.9,4,2.9c0,1.2-0.6,2.1-1.7,2.5c1.2,0.4,2.1,1.2,2.1,2.8c0,2.6-2.5,3.2-4.6,3.2h-4.9V38
		H151.6z M151.5,44.6h-2v2.4h2c0.9,0,1.5-0.3,1.5-1.2S152.4,44.6,151.5,44.6z M151.3,40.3h-1.8v2.1l1.8,0c0.8,0,1.2-0.4,1.2-1.1
		S152.1,40.3,151.3,40.3z"/>
</g>
<g>
	<path fill="#FFFFFF" d="M177.7,38v2.6h-5.2v1.7h4.7v2.6h-4.7v1.8h5.3v2.6h-8.3V38H177.7z"/>
</g>
<g>
	<path fill="#FFFFFF" d="M200,38v2.7h-3.2v8.7h-3v-8.7h-3.2V38H200z"/>
</g>
<g>
	<path fill="#FFFFFF" d="M213.2,49.3V38h3v4.3h1.4l2.6-4.3h3.3l-3.6,5.5l3.7,5.8h-3.3l-2.8-4.4h-1.4v4.4H213.2z"/>
</g>
<g>
	<path fill="#FFFFFF" d="M241.5,37.7c4,0,6.1,2.8,6.1,5.9c0,3.2-2,5.9-6.1,5.9c-4,0-6.1-2.8-6.1-5.9
		C235.5,40.5,237.5,37.7,241.5,37.7z M241.5,40.5c-2,0-3,1.3-3,3.2c0,1.8,1,3.2,3,3.2s3-1.3,3-3.2C244.5,41.8,243.5,40.5,241.5,40.5
		z"/>
</g>
<g>
	<path fill="#FFFFFF" d="M269.3,38v2.7h-5.2v2h4.7v2.7h-4.7v4h-3V38H269.3z"/>
</g>
<g>
	<path fill="#FFFFFF" d="M291,38v2.7h-5.2v2h4.7v2.7h-4.7v4h-3V38H291z"/>
</g>
</svg>
